<?xml version="1.0" encoding="UTF-8" standalone="no"?>
<!-- Created with Inkscape (http://www.inkscape.org/) -->

<svg
   xmlns:dc="http://purl.org/dc/elements/1.1/"
   xmlns:cc="http://creativecommons.org/ns#"
   xmlns:rdf="http://www.w3.org/1999/02/22-rdf-syntax-ns#"
   xmlns:svg="http://www.w3.org/2000/svg"
   xmlns="http://www.w3.org/2000/svg"
   xmlns:sodipodi="http://sodipodi.sourceforge.net/DTD/sodipodi-0.dtd"
   xmlns:inkscape="http://www.inkscape.org/namespaces/inkscape"
   width="24"
   height="24"
   id="svg2"
   version="1.1"
   inkscape:version="0.92.3 (2405546, 2018-03-11)"
   sodipodi:docname="sign-error.svg"
   inkscape:export-filename="/home/jeff/dlab/osprey-gui/src/main/resources/edu/duke/cs/ospreygui/icons/sign-error.png"
   inkscape:export-xdpi="80"
   inkscape:export-ydpi="80">
  <defs
     id="defs4" />
  <sodipodi:namedview
     id="base"
     pagecolor="#ffffff"
     bordercolor="#666666"
     borderopacity="1.0"
     inkscape:pageopacity="0.0"
     inkscape:pageshadow="2"
     inkscape:zoom="25.26137"
     inkscape:cx="-8.4300349"
     inkscape:cy="11.881829"
     inkscape:document-units="px"
     inkscape:current-layer="layer1"
     showgrid="true"
     inkscape:window-width="1920"
     inkscape:window-height="1015"
     inkscape:window-x="1080"
     inkscape:window-y="31"
     inkscape:window-maximized="1">
    <inkscape:grid
       type="xygrid"
       id="grid2985"
       empspacing="4"
       visible="true"
       enabled="true"
       snapvisiblegridlinesonly="true" />
  </sodipodi:namedview>
  <metadata
     id="metadata7">
    <rdf:RDF>
      <cc:Work
         rdf:about="">
        <dc:format>image/svg+xml</dc:format>
        <dc:type
           rdf:resource="http://purl.org/dc/dcmitype/StillImage" />
        <dc:title />
      </cc:Work>
    </rdf:RDF>
  </metadata>
  <g
     inkscape:label="Layer 1"
     inkscape:groupmode="layer"
     id="layer1"
     transform="translate(0,-1028.3622)">
    <path
       sodipodi:type="arc"
       style="fill:#942b21;fill-opacity:1;fill-rule:nonzero;stroke:none"
       id="path2984"
       sodipodi:cx="12"
       sodipodi:cy="12"
       sodipodi:rx="10"
       sodipodi:ry="10"
       d="M 22,12 A 10,10 0 0 1 12,22 10,10 0 0 1 2,12 10,10 0 0 1 12,2 10,10 0 0 1 22,12 Z"
       transform="translate(0,1029.3622)" />
    <path
       transform="translate(0,1028.3622)"
       sodipodi:type="arc"
       style="fill:#d92c1a;fill-opacity:1;fill-rule:nonzero;stroke:none"
       id="path2984-4"
       sodipodi:cx="12"
       sodipodi:cy="12"
       sodipodi:rx="10"
       sodipodi:ry="10"
       d="M 22,12 A 10,10 0 0 1 12,22 10,10 0 0 1 2,12 10,10 0 0 1 12,2 10,10 0 0 1 22,12 Z" />
    <path
       style="fill:#942b21;fill-opacity:1;fill-rule:nonzero;stroke:none"
       d="M 7.0502525,1037.827 10.585786,1041.3625 7.0502525,1044.898 8.4644661,1046.3122 12,1042.7767 15.535534,1046.3122 16.949747,1044.898 13.414214,1041.3625 16.949747,1037.827 15.535534,1036.4128 12,1039.9483 8.4644661,1036.4128 7.0502525,1037.827 z"
       id="rect2987-16"
       inkscape:connector-curvature="0" />
    <path
       style="fill:#ecf0f1;fill-opacity:1;fill-rule:nonzero;stroke:none"
       d="M 7.0502525,1036.8267 10.585786,1040.3622 7.0502525,1043.8977 8.4644661,1045.3119 12,1041.7764 15.535534,1045.3119 16.949747,1043.8977 13.414214,1040.3622 16.949747,1036.8267 15.535534,1035.4125 12,1038.948 8.4644661,1035.4125 7.0502525,1036.8267 z"
       id="rect2987"
       inkscape:connector-curvature="0" />
  </g>
</svg>
